# NDS OBJ export
# bone: Bip01 R Clavicle_Bone

mtllib kotone_n27.mtl
v -0.000182 0.048998 1.239256
v 0.078939 0.028011 1.236951
v 0.047180 -0.038513 1.329835
v 0.107891 -0.049633 1.299517
v 0.107201 -0.101142 1.302176
v 0.049889 -0.092221 1.334922
v 0.107891 -0.049633 1.299517
v 0.047180 -0.038513 1.329835
v 0.104548 -0.027514 1.243735
v 0.138899 -0.103954 1.292155
v 0.137289 -0.050681 1.286889
v 0.107201 -0.101142 1.302176
v 0.107891 -0.049633 1.299517
vt 0.345280 0.958293
vt 0.108459 0.946717
vt 0.234353 0.678288
vt 0.499266 0.685725
vt 0.056260 0.963907
vt 0.363571 0.970973
vt 0.324707 0.914652
vt 0.073852 0.870315
vt 0.992017 0.113184
vt 0.926923 0.117603
vt 0.927699 0.191160
vt 0.990572 0.195185
vt 0.933122 0.273687
usemtl 0002_p3pplayer_t02_tm2
f 3/1 4/2 2/3 1/4
usemtl 0001_p3pplayer_t04_tm2
f 7/5 8/6 6/7 5/8
usemtl 0004_p3pplayer_t01_tm2
f 12/9 10/10 11/11 13/12
f 13/12 11/11 9/13
