# NDS OBJ export
# bone: b backhair01_Bone

mtllib kotone_n14.mtl
v -0.162256 -0.078596 1.491136
v -0.143723 -0.061954 1.493462
v -0.104688 -0.077701 1.586493
v -0.141167 -0.116582 1.550391
v -0.076727 -0.129089 1.640986
v -0.066063 -0.084194 1.636460
v 0.061444 -0.067553 1.654456
v 0.114815 -0.124180 1.598403
v 0.099941 -0.076065 1.602641
v 0.143343 -0.074687 1.510604
v 0.164436 -0.089230 1.498216
v -0.032576 -0.078852 1.661026
v -0.033190 -0.131434 1.676773
v -0.081222 -0.158837 1.633240
v -0.057014 -0.183275 1.644232
v -0.049974 -0.186625 1.622036
v 0.014699 -0.147596 1.660229
v 0.081485 -0.213005 1.589936
v 0.039393 -0.136502 1.676586
v 0.073862 -0.106955 1.651016
v 0.032609 -0.078903 1.665934
v -0.009237 -0.149533 1.670510
v 0.000016 -0.075605 1.661793
v -0.077618 -0.168065 1.596071
v 0.000016 -0.214615 1.619410
v 0.000016 -0.160678 1.660591
v 0.051091 -0.215255 1.529607
v -0.118902 -0.144497 1.505834
v 0.055104 -0.071361 1.602615
v 0.000016 -0.107942 1.541290
v 0.086440 -0.132420 1.432295
vt 0.793574 0.733128
vt 0.628017 0.702984
vt 0.842899 0.617474
vt 0.656134 0.824919
vt 0.806800 0.702117
vt 0.628309 0.736563
vt 0.935818 0.937093
vt 0.932580 0.757430
vt 0.766022 0.810044
vt 0.628248 0.857383
vt 0.770453 0.824840
vt 0.753964 0.965087
vt 0.599574 0.715179
vt 0.682363 0.725123
vt 0.852281 0.679137
vt 0.620949 0.585167
vt 0.921720 0.751844
vt 0.648197 0.878668
vt 0.665607 0.464792
vt 0.756808 0.447496
vt 0.853655 0.528611
vt 0.740181 0.555451
vt 0.718126 0.463536
vt 0.604695 0.775422
vt 0.682850 0.919691
vt 0.970821 0.830049
vt 0.921601 0.670663
vt 0.610184 0.636934
vt 0.876974 0.673674
vt 0.965940 0.835769
vt 0.560007 0.748457
vt 0.762084 0.428127
vt 0.638069 0.489881
vt 0.695850 0.215734
vt 0.696189 0.081677
vt 0.881505 0.191129
vt 0.960648 0.818427
vt 0.793498 0.731600
vt 0.951251 0.604627
vt 0.665896 0.610332
vt 0.602916 0.753602
vt 0.670685 0.862043
vt 0.695561 0.323883
vt 0.758769 0.400148
vt 0.645050 0.401964
vt 0.659190 0.536639
vt 0.743883 0.189298
vt 0.834476 0.235330
vt 0.879239 0.093623
vt 0.772667 0.097795
usemtl 0001_p3pplayer_t04_tm2
f 5/1 3/2 4/3
f 3/2 5/1 6/4
f 7/4 8/5 9/6
f 12/7 5/8 13/9
f 17/10 19/11 21/7 23/12
f 16/13 15/14 14/15
f 17/10 18/16 19/11
f 20/17 19/11 18/16
f 22/18 15/14 16/13
f 15/14 22/18 13/9
f 4/3 3/2 2/19 1/20
f 17/21 20/22 18/23
f 25/24 26/25 5/26 24/27
f 14/15 15/14 13/9 5/8
f 27/28 8/29 20/30 25/31
f 11/32 10/33 9/6 8/5
f 29/34 31/35 30/36
f 24/37 4/38 28/39
f 4/40 24/41 5/42
f 10/43 29/44 9/45
f 7/46 9/45 29/44
f 5/47 22/48 16/49 14/50
