# NDS OBJ export
# bone: Bip01 Spine3_Bone

mtllib kotone_n7.mtl
v -0.000182 0.048998 1.239256
v -0.079300 0.027679 1.238475
v -0.000444 0.073554 1.197317
v -0.087789 0.046940 1.190836
v -0.000802 0.062587 1.140645
v -0.074934 0.037971 1.143456
v 0.073356 0.037971 1.142511
v 0.078939 0.028011 1.236951
v -0.107424 -0.049633 1.300207
v -0.046789 -0.038513 1.330141
v -0.104587 -0.024991 1.241975
v 0.086435 0.047204 1.189488
v 0.104670 -0.024991 1.241336
v 0.047180 -0.038513 1.329835
v 0.107891 -0.049633 1.299517
v -0.111719 -0.071540 1.190620
v 0.103290 -0.060600 1.139494
v 0.000016 -0.010778 1.306496
v -0.104893 -0.060600 1.140798
v 0.111496 -0.071540 1.189904
v 0.020254 -0.102418 1.394118
v 0.000246 -0.112645 1.336046
v -0.034289 -0.091122 1.393869
v -0.058421 -0.073697 1.332689
v -0.053895 -0.035369 1.382008
v 0.000016 -0.085856 1.356624
v -0.052541 0.044003 1.288474
v 0.059295 -0.071853 1.332160
v 0.053903 -0.035369 1.382008
v 0.052548 0.044003 1.288474
v -0.027566 -0.034321 1.321603
v 0.000016 -0.010778 1.306496
v -0.046789 -0.038513 1.330141
v -0.035976 0.039274 1.356471
v 0.027573 -0.034321 1.321603
v 0.035983 0.039274 1.356471
v 0.047180 -0.038513 1.329835
v 0.104194 -0.068576 1.191682
v 0.060166 -0.112722 1.137475
v 0.107201 -0.101142 1.302176
v 0.038176 -0.138241 1.241295
v 0.098382 -0.123791 1.226152
v 0.049889 -0.092221 1.334922
v -0.105619 -0.069081 1.191876
v -0.099778 -0.127323 1.228193
v -0.061820 -0.112722 1.138242
v -0.049448 -0.092221 1.335152
v 0.000246 -0.112645 1.336046
v -0.003000 0.078028 1.165619
v -0.068703 0.054626 1.140680
v 0.032977 0.085858 1.188116
v -0.000980 0.077976 1.161248
v -0.035235 -0.059296 1.408440
v -0.031298 -0.064025 1.331803
v 0.000016 -0.078212 1.393767
v 0.000016 -0.086878 1.341568
v 0.031331 -0.064025 1.331803
v 0.035267 -0.059296 1.408440
v -0.052541 0.044003 1.288474
v -0.035976 0.039274 1.356471
v -0.046789 -0.038513 1.330141
v 0.052548 0.044003 1.288474
v 0.047180 -0.038513 1.329835
v 0.035983 0.039274 1.356471
vt 0.221248 0.524420
vt 0.024192 0.519313
vt 0.042955 0.368053
vt 0.250217 0.368053
vt 0.500007 0.524488
vt 0.499266 0.685725
vt 0.234353 0.678288
vt 0.779733 0.681460
vt 0.792412 0.527822
vt 0.053994 0.695041
vt 0.917207 0.946717
vt 0.946021 0.695041
vt 0.551073 0.767688
vt 0.618699 0.970686
vt 0.515273 0.921537
vt 0.500007 0.368053
vt 0.761248 0.368053
vt 0.975823 0.519313
vt 0.108459 0.946717
vt 0.957060 0.368053
vt 0.976188 0.863324
vt 0.859777 0.866305
vt 0.865905 0.884161
vt 0.918591 0.885417
vt 0.948033 0.885958
vt 0.924976 0.899142
vt 0.872382 0.996077
vt 0.966253 0.996077
vt 0.993993 0.899142
vt 0.806407 0.996077
vt 0.803062 0.899142
vt 0.928714 0.899142
vt 0.883026 0.860267
vt 0.977693 0.884509
vt 0.889442 0.886915
vt 0.817339 0.867546
vt 0.818373 0.883843
vt 0.085041 0.717479
vt 0.246400 0.492166
vt 0.352968 0.718423
vt 0.324707 0.914652
vt 0.503064 0.911686
vt 0.323947 0.914652
vt 0.073852 0.870315
vt 0.085149 0.717467
vt 0.247176 0.492166
vt 0.029854 0.628010
vt 0.029086 0.627847
vt 0.109498 0.109962
vt 0.012347 0.059602
vt 0.064714 0.053050
vt 0.038850 0.029012
vt 0.412639 0.397787
vt 0.406161 0.463945
vt 0.362994 0.515499
vt 0.361443 0.386605
vt 0.883619 0.859284
vt 0.948773 0.881104
vt 0.952407 0.853503
usemtl 0002_p3pplayer_t02_tm2
f 12/1 20/2 17/3 7/4
f 12/1 3/5 1/6 8/7
f 2/8 1/6 3/5 4/9
f 13/10 20/2 12/1 8/7
f 9/11 2/8 11/12
f 1/13 10/14 18/15
f 1/13 18/15 14/14
f 4/9 3/5 5/16 6/17
f 11/12 2/8 4/9 16/18
f 13/10 8/7 15/19
f 6/17 19/20 16/18 4/9
usemtl 0004_p3pplayer_t01_tm2
f 26/21 31/22 25/23 23/24
f 26/21 21/25 29/23 35/22
f 28/26 29/27 21/28 22/29
f 34/30 27/31 24/32 25/27
f 32/33 33/34 34/35
f 32/36 31/22 25/23
f 36/30 29/27 28/26 30/31
f 32/33 36/35 37/34
f 32/36 29/23 35/22
f 34/37 25/23 32/36
f 36/37 32/36 29/23
usemtl 0001_p3pplayer_t04_tm2
f 45/38 46/39 41/40
f 41/40 43/41 48/42
f 47/43 45/38 41/40 48/42
f 40/44 43/41 41/40 42/45
f 39/46 42/45 41/40
f 42/45 39/46 38/47
f 44/48 46/39 45/38
usemtl 0000_p3pplayer_t01_tm2
f 51/49 52/50 49/51
f 50/52 49/51 52/50
usemtl 0005_p3pplayer_t01_tm2
f 56/53 55/54 53/55 54/56
f 57/56 58/55 55/54 56/53
f 59/57 60/58 61/59
f 62/57 63/59 64/58
