# NDS OBJ export
# bone: Bip01 L Clavicle_Bone

mtllib kotone_n17.mtl
v -0.000182 0.048998 1.239256
v -0.079300 0.027679 1.238475
v -0.107424 -0.049633 1.300207
v -0.046789 -0.038513 1.330141
v -0.099778 -0.127323 1.228193
v -0.046789 -0.038513 1.330141
v -0.107424 -0.049633 1.300207
v -0.049448 -0.092221 1.335152
v -0.106708 -0.101142 1.302840
v -0.104485 -0.027488 1.244545
v -0.160646 -0.079848 1.264726
v -0.098566 -0.123842 1.231558
v -0.108841 -0.042225 1.302668
v -0.138381 -0.103954 1.292155
v -0.106708 -0.101142 1.302840
vt 0.651208 0.958293
vt 0.499266 0.685725
vt 0.779733 0.681460
vt 0.917207 0.946717
vt 0.073077 0.870300
vt 0.323947 0.914652
vt 0.362340 0.970867
vt 0.056731 0.964285
vt 0.085041 0.717479
vt 0.883740 0.146475
vt 0.990509 0.195181
vt 0.933316 0.273929
vt 0.948151 0.046943
vt 0.992017 0.113184
vt 0.926923 0.117603
usemtl 0002_p3pplayer_t02_tm2
f 4/1 1/2 2/3 3/4
usemtl 0001_p3pplayer_t04_tm2
f 9/5 8/6 6/7 7/8
f 8/6 9/5 5/9
usemtl 0004_p3pplayer_t01_tm2
f 11/10 13/11 10/12
f 12/13 15/14 14/15
