# NDS OBJ export
# bone: Bip01 Spine1_Bone

mtllib kotone_n5.mtl
v 0.080258 -0.110268 0.964133
v -0.055486 -0.123990 0.930931
v 0.000272 -0.233404 0.672027
v -0.135168 -0.036194 0.921286
v -0.086002 0.046841 0.909403
v -0.102363 0.049551 0.834632
v -0.195602 -0.079086 0.655877
v 0.160448 -0.174942 0.671848
v -0.000214 0.076493 0.916714
v -0.053921 0.070077 1.028807
v -0.052924 0.028487 1.033383
v -0.033854 0.041294 1.025509
v -0.073016 0.057270 1.036706
v -0.080992 0.063763 0.939311
v -0.100087 0.050956 0.947210
v -0.054995 -0.089792 1.095015
v -0.058413 -0.088723 1.015047
v 0.027202 -0.104224 1.096398
v 0.000761 -0.103852 1.021693
v 0.056236 -0.089329 1.019456
v -0.064669 0.073113 0.875673
v -0.097506 0.037787 0.981400
v -0.033190 0.090528 0.959250
v -0.015168 0.062051 0.956617
v -0.035490 0.057961 0.900303
v -0.086002 0.046841 0.909403
v -0.000214 0.076493 0.916714
v 0.000328 0.057603 1.003395
v 0.068722 0.037595 0.995315
v -0.086616 -0.122589 0.933867
v -0.000214 -0.143755 0.946035
v 0.080258 -0.110268 0.964133
v 0.229426 -0.050901 0.664152
v 0.143424 0.056325 0.649225
v 0.092849 -0.033608 1.015539
v 0.160448 -0.174942 0.671848
v 0.090994 -0.033452 1.091692
v 0.065611 0.031810 1.084074
v 0.000272 0.057679 1.079601
v -0.091923 -0.031804 1.015989
v -0.090476 -0.033452 1.091692
v -0.065066 0.031810 1.084074
v -0.064844 0.033098 1.006362
v -0.060158 0.034852 1.014568
v -0.060158 0.034852 1.034584
v -0.041702 0.042521 1.014568
v -0.041702 0.042521 1.034584
v 0.060166 0.034852 1.014568
v 0.041709 0.042521 1.014568
v 0.060166 0.034852 1.034584
v 0.041709 0.042521 1.034584
v -0.083165 0.016447 0.984737
v -0.134367 -0.037005 0.921162
v 0.000272 0.097966 0.641837
v -0.117750 0.124470 0.837542
v 0.000272 0.097966 0.641837
v -0.000214 0.076493 0.916714
v -0.038586 0.057968 1.021237
v -0.074039 0.021764 1.030494
v -0.071125 0.060261 0.906719
v -0.102235 0.035951 0.913698
v -0.087562 0.047633 1.032488
v -0.041216 0.047582 0.999461
v -0.051084 0.066217 1.001480
v 0.055164 0.108601 1.016173
v -0.063635 0.049832 0.953857
vt 0.509495 0.733325
vt 0.638378 0.927272
vt 0.981206 0.927595
vt 0.904799 0.733325
vt 0.702920 0.876080
vt 0.991226 0.933038
vt 0.703073 0.933174
vt 0.521143 0.933174
vt 0.731126 0.733325
vt 0.702692 0.926939
vt 0.606231 0.553496
vt 0.659312 0.553814
vt 0.659099 0.649781
vt 0.606033 0.649463
vt 0.901470 0.498385
vt 0.901287 0.680075
vt 0.920370 0.680075
vt 0.920567 0.498385
vt 0.904952 0.498385
vt 0.911736 0.680075
vt 0.917602 0.498385
vt 0.593915 0.585146
vt 0.656818 0.677243
vt 0.595374 0.683329
vt 0.593915 0.698158
vt 0.584594 0.698158
vt 0.584594 0.606307
vt 0.905347 0.498385
vt 0.906259 0.680075
vt 0.961941 0.680075
vt 0.962123 0.498385
vt 0.589520 0.455652
vt 0.661775 0.455667
vt 0.647957 0.324789
vt 0.588380 0.698900
vt 0.623945 0.696872
vt 0.666565 0.698082
vt 0.662338 0.257741
vt 0.590417 0.257741
vt 0.590417 0.372305
vt 0.662338 0.372305
vt 0.929843 0.680075
vt 0.929949 0.498385
vt 0.595101 0.560109
vt 0.658020 0.683359
vt 0.731126 0.733325
vt 0.981206 0.733619
vt 0.981206 0.927741
vt 0.702692 0.926939
vt 0.703073 0.933174
vt 0.991226 0.933174
vt 0.993075 0.735154
vt 0.702571 0.734505
vt 0.988823 0.498385
vt 0.988641 0.680075
vt 0.979716 0.680075
vt 0.979898 0.498385
vt 0.962260 0.498385
vt 0.962077 0.680075
vt 0.906092 0.680075
vt 0.905469 0.498385
vt 0.590417 0.491409
vt 0.662338 0.491561
vt 0.589520 0.526425
vt 0.661775 0.526243
vt 0.830066 0.704846
vt 0.873644 0.704846
vt 0.872686 0.654154
vt 0.829108 0.654154
vt 0.663296 0.345658
vt 0.661714 0.524669
vt 0.589870 0.526349
vt 0.589870 0.344629
vt 0.590417 0.371806
vt 0.660690 0.256603
vt 0.662338 0.371806
vt 0.973709 0.498385
vt 0.973527 0.680075
vt 0.992062 0.680075
vt 0.992245 0.498385
vt 0.521143 0.933174
vt 0.521143 0.734384
vt 0.521143 0.933174
vt 0.521143 0.734384
vt 0.702915 0.873757
vt 0.957957 0.597818
vt 0.288534 0.719736
vt 0.006037 0.986015
vt 0.964845 0.986030
vt 0.314063 0.564164
vt 0.266401 0.092724
vt 0.209330 0.560502
vt 0.024678 0.548185
vt 0.358509 0.434349
vt 0.024678 0.369657
vt 0.839889 0.622044
vt 0.602430 0.598922
vt 0.955132 0.201459
vt 0.840436 0.622316
vt 0.603707 0.597076
vt 0.189731 0.612632
vt 0.003437 0.726334
vt 0.189822 0.726334
vt 0.002935 0.985969
vt 0.286253 0.715015
vt 0.957562 0.596017
vt 0.967369 0.985984
usemtl 0003_p3pplayer_t03_tm2
f 3/1 2/2 4/3 7/4
f 6/5 4/6 5/7
f 9/8 6/5 5/7
f 8/9 1/10 2/2 3/1
usemtl 0003_p3pplayer_t03_tm2
f 14/11 15/12 13/13 10/14
f 35/15 37/16 18/17 20/18
f 20/19 18/20 19/21
f 21/22 22/23 23/24
f 23/25 24/26 21/22
f 25/27 21/22 24/26
f 28/28 39/29 38/30 29/31
f 27/32 28/33 29/34
f 24/35 23/36 22/37 52/36
f 40/38 53/39 30/40 17/41
f 19/21 18/20 16/42 17/43
f 25/44 52/45 22/23 21/22
f 36/46 33/47 35/48 32/49
f 29/50 35/51 33/52 34/53
f 40/54 41/55 42/56 43/57
f 43/58 42/59 39/60 28/61
f 17/41 30/40 31/62 19/63
f 28/33 27/32 26/64 43/65
f 51/66 50/67 48/68 49/69
f 10/14 13/13 11/13 12/14
f 40/70 43/71 26/72 53/73
f 32/74 35/75 20/76
f 29/77 38/78 37/79 35/80
f 32/74 20/76 19/63 31/62
f 27/81 29/50 54/82
f 47/66 46/69 44/68 45/67
usemtl 0003_p3pplayer_t03_tm2
f 57/83 56/84 55/85
usemtl 0009_bc_syoukanki_tm2
f 58/86 60/87 61/88 62/89
f 59/90 58/91 62/92
f 63/93 65/94 64/95
f 63/96 66/97 65/98
f 64/99 65/98 66/100
f 62/101 61/102 59/103
f 61/104 60/105 58/106 59/107
