# NDS OBJ export
# bone: Bip01 Spine2_Bone

mtllib kotone_n6.mtl
v -0.000444 0.073554 1.197317
v -0.000802 0.062587 1.140645
v -0.074934 0.037971 1.143456
v -0.001415 0.074781 1.045219
v 0.083811 0.037945 1.045679
v 0.073356 0.037971 1.142511
v 0.086435 0.047204 1.189488
v 0.115816 -0.058580 1.050536
v 0.103290 -0.060600 1.139494
v -0.086590 0.037945 1.046752
v -0.104893 -0.060600 1.140798
v -0.118544 -0.058580 1.052018
v -0.054995 -0.089792 1.095015
v -0.058413 -0.088723 1.015047
v -0.071074 -0.109834 1.056262
v -0.001108 -0.030206 1.091308
v -0.001313 -0.132968 1.058332
v 0.068397 -0.109834 1.055367
v -0.086590 0.037945 1.046752
v -0.118544 -0.058580 1.052018
v -0.001415 0.074781 1.045219
v 0.083811 0.037945 1.045679
v 0.115816 -0.058580 1.050536
v -0.091923 -0.031804 1.015989
v -0.090476 -0.033452 1.091692
v 0.068397 -0.109834 1.055367
v 0.104194 -0.068576 1.191682
v 0.060166 -0.112722 1.137475
v 0.038176 -0.138241 1.241295
v -0.118544 -0.058580 1.052018
v -0.071074 -0.109834 1.056262
v -0.105619 -0.069081 1.191876
v -0.061820 -0.112722 1.138242
v -0.001319 -0.126264 1.057675
v 0.115816 -0.058580 1.050536
v -0.068703 0.054626 1.140680
v -0.070026 0.042086 1.131289
v -0.066044 0.039613 1.123431
v -0.075701 0.040399 1.130522
v -0.050061 0.051979 1.114749
v -0.016983 0.071841 1.063419
v -0.066447 0.045972 1.101840
v -0.033369 0.065834 1.050536
v -0.063788 0.044412 1.127096
v -0.053614 0.050522 1.111350
v -0.071994 0.041396 1.120654
v -0.061846 0.047505 1.104882
vt 0.500007 0.524488
vt 0.221248 0.524420
vt 0.250217 0.368053
vt 0.500007 0.368053
vt 0.251813 0.030367
vt 0.500007 0.030367
vt 0.777958 0.030367
vt 0.976386 0.030367
vt 0.957060 0.368053
vt 0.761248 0.368053
vt 0.759757 0.368053
vt 0.955570 0.368053
vt 0.974911 0.030367
vt 0.776483 0.030367
vt 0.940486 0.680075
vt 0.940577 0.498385
vt 0.929949 0.498385
vt 0.929843 0.680075
vt 0.692444 0.741663
vt 0.699286 0.733325
vt 0.694679 0.717663
vt 0.682378 0.728725
vt 0.682409 0.745415
vt 0.692475 0.741663
vt 0.699302 0.733325
vt 0.682409 0.711671
vt 0.246400 0.492166
vt 0.029086 0.627847
vt 0.025545 0.309432
vt 0.211596 0.311051
vt 0.212371 0.311051
vt 0.026321 0.309432
vt 0.029854 0.628010
vt 0.247176 0.492166
vt 0.509571 0.318206
vt 0.352968 0.718423
vt 0.039262 0.007878
vt 0.064714 0.007260
vt 0.012347 0.008531
vt 0.165539 0.212208
vt 0.165539 0.292015
vt 0.085727 0.292015
vt 0.085727 0.212208
vt 0.038850 0.029012
vt 0.169569 0.024314
vt 0.169569 0.242866
vt 0.081698 0.242866
vt 0.081698 0.024314
usemtl 0002_p3pplayer_t02_tm2
f 1/1 7/2 6/3 2/4
f 2/4 6/3 5/5 4/6
f 10/7 12/8 11/9 3/10
f 4/6 10/7 3/10 2/4
f 6/11 9/12 8/13 5/14
usemtl 0003_p3pplayer_t03_tm2
f 25/15 24/16 14/17 13/18
f 15/19 20/20 19/21 16/22
f 15/19 16/22 17/23
f 18/24 17/23 16/22
f 22/21 23/25 18/24 16/22
f 22/21 16/22 19/21 21/26
usemtl 0001_p3pplayer_t04_tm2
f 33/27 32/28 30/29 31/30
f 26/31 35/32 27/33 28/34
f 26/31 28/34 34/35
f 29/36 33/27 34/35 28/34
f 34/35 33/27 31/30
usemtl 0000_p3pplayer_t01_tm2
f 38/37 39/38 37/39
f 47/40 46/41 44/42 45/43
f 36/44 37/39 39/38
f 43/45 42/46 40/47 41/48
