# NDS OBJ export
# bone: b_suso_l_s01_Bone

mtllib makoto_n61.mtl
v 0.042022 0.023175 1.114266
v 0.110151 0.011735 1.302816
v 0.061511 -0.085387 0.992428
v 0.105536 0.019132 1.165742
v 0.000106 0.090900 1.135321
v 0.084112 0.090070 1.014600
v 0.119380 -0.018868 1.007102
v 0.105536 0.019132 1.165742
v 0.125325 0.032897 1.016127
v 0.105536 0.019132 1.165742
v 0.109472 0.012036 1.302717
v 0.081269 -0.065472 0.973650
v 0.080253 0.006739 1.145416
v 0.123638 0.137925 0.828673
v 0.084112 0.090070 1.014600
vt 0.444948 0.917532
vt 0.489004 0.935048
vt 0.482642 0.922202
vt 0.486756 0.913161
vt 0.486756 0.917562
vt 0.477060 0.917532
vt 0.488995 0.923868
vt 0.488995 0.917456
vt 0.964164 0.700901
vt 0.965662 0.790176
vt 0.919832 0.504396
vt 0.486756 0.926802
vt 0.451770 0.926092
vt 0.486756 0.922023
usemtl 0007_bc001_t02_tm2
f 3/1 2/2 1/3
usemtl 0007_bc001_t02_tm2
f 4/4 5/5 6/5
usemtl 0007_bc001_t02_tm2
f 7/6 8/7 9/8
usemtl 0004_bc001_t01_tm2
f 10/9 11/10 12/11
usemtl 0007_bc001_t02_tm2
f 15/12 14/13 13/14
