# NDS OBJ export
# bone: b_suso_r_s02_Bone

mtllib makoto_n65.mtl
v -0.141793 -0.009167 1.169185
v -0.191847 0.058685 0.839894
v -0.177600 -0.031667 0.818979
v -0.082497 0.116244 1.249675
v -0.137619 0.022426 1.016047
v -0.191847 0.058685 0.839894
v -0.118874 0.139371 0.828619
v -0.204054 0.055552 0.843629
v -0.137619 0.022426 1.016047
v -0.092427 -0.038475 1.168445
v -0.191847 0.058685 0.839894
v -0.054568 0.169876 0.819233
v -0.132049 0.022667 1.016047
v -0.071936 0.106939 1.016411
vt 0.446929 0.914083
vt 0.446929 0.926394
vt 0.466790 0.913705
vt 0.026637 0.991713
vt 0.299224 0.991713
vt 0.025956 0.731239
vt 0.641613 0.731239
vt 0.193047 0.573526
vt 0.006867 0.302092
vt 0.007648 0.014250
vt 0.486756 0.931990
vt 0.486756 0.934455
vt 0.451770 0.934561
vt 0.451770 0.931748
usemtl 0007_bc001_t02_tm2
f 2/1 1/2 3/3
usemtl 0002_bc001_t04_tm2
f 6/4 5/5 7/6
f 4/7 7/6 5/5
usemtl 0006_bc001_t02_tm2
f 10/8 9/9 8/10
usemtl 0007_bc001_t02_tm2
f 14/11 13/12 11/13 12/14
