# NDS OBJ export
# bone: b_hair03_Bone

mtllib makoto_n17.mtl
v -0.131818 0.065557 1.572161
v -0.139226 -0.011396 1.594021
v -0.126158 -0.015922 1.530206
v -0.106984 -0.039541 1.444968
v -0.088801 -0.084717 1.621791
v -0.080446 -0.053600 1.531652
v -0.082858 -0.089188 1.513048
v -0.038831 -0.115380 1.623130
v -0.060114 -0.100543 1.546653
v -0.076991 -0.048699 1.604920
v -0.092764 -0.006817 1.543435
v -0.143029 -0.021974 1.496170
vt 0.147449 0.347902
vt 0.350455 0.287392
vt 0.580893 0.446556
vt 0.708080 0.144384
vt 0.405151 0.249175
vt 0.278976 0.129126
vt 0.336403 0.334200
vt 0.547593 0.287846
vt 0.221643 0.412115
vt 0.136240 0.319424
vt 0.179077 0.205786
vt 0.162772 0.353860
vt 0.327434 0.427860
vt 0.394487 0.264284
vt 0.645958 0.268851
vt 0.532104 0.470781
vt 0.079397 0.372810
vt 0.084434 0.364916
vt 0.129540 0.368243
vt 0.268215 0.268352
vt 0.180303 0.323598
vt 0.018530 0.278273
vt 0.063635 0.385907
vt 0.626506 0.105849
vt 0.329324 0.132421
usemtl 0002_bc001_t04_tm2
f 4/1 3/2 1/3
f 5/4 6/5 7/6
f 9/7 8/8 7/9
f 9/10 6/11 10/12
f 3/13 6/14 5/15 2/16
f 7/17 6/18 9/19
f 11/20 6/21 4/22
f 6/14 3/13 4/23
f 2/24 3/25 12/24
