# NDS OBJ export
# bone: b_player03_Bone

mtllib makoto_n46.mtl
v -0.015988 -0.104668 1.089823
v -0.015988 -0.104668 0.995186
v 0.015986 -0.104668 1.089823
v 0.015986 -0.104668 0.995186
v -0.008463 -0.104373 1.118290
v -0.008463 -0.104373 1.089208
v 0.007577 -0.104373 1.118290
v 0.007577 -0.104373 1.089208
vt 0.165540 0.212198
vt 0.165540 0.292020
vt 0.085719 0.292020
vt 0.085719 0.212198
vt 0.169578 0.024318
vt 0.169578 0.242868
vt 0.081696 0.242868
vt 0.081696 0.024318
usemtl 0001_bc001_t01_tm2
f 8/1 7/2 5/3 6/4
f 4/5 3/6 1/7 2/8
