# NDS OBJ export
# bone: Bip01 Spine2_Bone

mtllib makoto_n5.mtl
v 0.096746 -0.031595 1.166519
v 0.119139 0.040609 1.162046
v 0.137617 0.041145 1.016047
v 0.000106 0.090900 1.135321
v 0.084112 0.090070 1.014600
v -0.107037 0.014151 1.165555
v -0.143614 0.037434 1.008748
v 0.104349 0.033358 1.159963
v 0.076707 0.096855 1.154957
v 0.191738 0.058551 0.840135
v 0.123638 0.137925 0.828673
v -0.073483 -0.036266 1.310214
v -0.107037 0.014151 1.165555
v -0.118659 0.031611 0.979707
v 0.000106 0.090900 1.135321
v -0.082293 0.089026 0.978609
vt 0.988079 0.302092
vt 0.988079 0.546853
vt 0.715133 0.548246
vt 0.486756 0.931990
vt 0.486756 0.926723
vt 0.486756 0.927453
vt 0.486756 0.917562
vt 0.487046 0.731239
vt 0.513987 0.991713
vt 0.026637 0.991713
vt 0.025956 0.731239
vt 0.964164 0.700901
vt 0.990801 0.671985
vt 0.980016 0.504612
vt 0.964285 0.504612
vt 0.892366 0.796083
usemtl 0006_bc001_t02_tm2
f 3/1 2/2 1/3
usemtl 0007_bc001_t02_tm2
f 6/4 7/5 4/6
f 7/5 5/7 4/7
usemtl 0002_bc001_t04_tm2
f 9/8 8/9 10/10 11/11
usemtl 0004_bc001_t01_tm2
f 13/12 15/13 16/14 14/15
f 13/12 14/15 12/16
