# NDS OBJ export
# bone: b_suso_l_s02_Bone

mtllib makoto_n62.mtl
v 0.096746 -0.031595 1.166519
v 0.179540 0.059677 0.838547
v 0.137617 0.041145 1.016047
v 0.119380 -0.018868 1.007102
v 0.125325 0.032897 1.016127
v 0.191738 0.058551 0.840135
v 0.191738 0.058551 0.840135
v 0.080253 0.006739 1.145416
v 0.123638 0.137925 0.828673
vt 0.988079 0.302092
vt 0.715133 0.548246
vt 0.989638 0.014241
vt 0.488995 0.929494
vt 0.488995 0.913433
vt 0.477060 0.929570
vt 0.451770 0.922129
vt 0.486756 0.922023
vt 0.451770 0.926092
usemtl 0006_bc001_t02_tm2
f 3/1 1/2 2/3
usemtl 0007_bc001_t02_tm2
f 5/4 6/5 4/6
usemtl 0007_bc001_t02_tm2
f 7/7 8/8 9/9
