# NDS OBJ export
# bone: b_suso_b02_Bone

mtllib makoto_n59.mtl
v 0.076707 0.096855 1.154957
v 0.123638 0.137925 0.828673
v -0.000001 0.170408 0.819220
v -0.000001 0.127641 1.018885
v -0.000001 0.127641 1.018885
v -0.118874 0.139371 0.828619
v -0.000001 0.170408 0.819220
v -0.054568 0.169876 0.819233
v 0.123638 0.137925 0.828673
v -0.071936 0.106939 1.016411
v 0.084112 0.090070 1.014600
vt 0.026456 0.503992
vt 0.297212 0.503856
vt 0.025956 0.731239
vt 0.487046 0.731239
vt 0.026456 0.503992
vt 0.025956 0.731239
vt 0.297212 0.503856
vt 0.451770 0.918031
vt 0.486756 0.917562
vt 0.486756 0.926444
vt 0.451770 0.924505
usemtl 0002_bc001_t04_tm2
f 3/1 4/2 2/3
f 1/4 2/3 4/2
usemtl 0002_bc001_t04_tm2
f 7/5 6/6 5/7
usemtl 0007_bc001_t02_tm2
f 9/8 11/9 10/10 8/11
