# NDS OBJ export
# bone: Bip01 Spine3_Bone

mtllib makoto_n6.mtl
v 0.004868 -0.027732 1.153128
v -0.044240 -0.042112 1.310617
v -0.083391 0.035414 1.375396
v -0.106119 0.067883 1.235320
v -0.134861 0.043662 1.357588
v -0.066172 0.091945 1.392695
v -0.083391 0.035414 1.375396
v -0.039474 0.084098 1.412164
v 0.063466 0.090981 1.392079
v 0.039418 0.084098 1.412164
v 0.080417 0.034878 1.378529
v -0.051042 0.023336 1.391812
v 0.050933 0.023336 1.391812
v -0.034225 -0.091867 1.168366
v -0.067886 -0.055903 1.171875
v -0.044240 -0.042112 1.310617
v -0.107975 0.012089 1.302932
v 0.110151 0.011735 1.302816
v 0.038106 -0.091867 1.168367
v 0.044667 -0.041496 1.310617
v -0.141793 -0.009167 1.169185
v -0.062801 -0.057831 1.171273
v -0.177600 -0.031667 0.818979
v 0.044667 -0.041496 1.310617
v 0.105664 0.072893 1.234843
v 0.052406 0.021751 1.393570
v 0.045710 0.043109 1.171034
v 0.134859 0.043662 1.357588
v -0.051042 0.023336 1.391812
v -0.083391 0.035414 1.375396
v -0.044240 -0.042112 1.310617
v -0.059260 -0.054489 1.170223
v -0.107037 0.014151 1.165555
v -0.107975 0.012089 1.302932
v -0.116481 0.076350 1.239072
v -0.115901 0.140254 1.302530
v -0.000001 0.151796 1.257862
v -0.000001 0.112511 1.390767
v 0.115899 0.140254 1.302530
v -0.078909 0.038907 1.363552
v -0.128332 0.046092 1.348332
v 0.073675 0.038278 1.361699
v 0.130163 0.044986 1.351397
v 0.099778 0.136077 1.243321
v 0.129744 0.072931 1.229771
v 0.169037 0.132103 1.277017
v 0.129787 0.072791 1.229980
v 0.309294 0.031275 1.169380
v 0.131866 0.011243 1.295538
v 0.276946 0.078109 1.145433
v 0.000062 -0.009807 1.406148
v -0.000055 -0.002479 1.383671
v 0.043167 0.025264 1.420680
v 0.115899 0.140254 1.302530
v 0.001045 -0.100431 1.115755
v 0.045845 -0.041148 1.294603
v 0.051709 -0.041148 1.293559
v -0.169040 0.132102 1.277016
v -0.129814 0.072793 1.229973
v -0.131433 0.009947 1.295808
v -0.158266 0.026148 1.272671
v 0.044667 -0.041496 1.310617
v 0.050933 0.023336 1.391812
v 0.000052 -0.018546 1.364363
v 0.043167 0.025264 1.420680
v 0.006747 -0.007406 1.406996
v -0.006830 -0.007406 1.406996
v -0.043276 0.025264 1.420680
v -0.051042 0.023336 1.391812
v -0.044240 -0.042112 1.310617
v -0.000055 -0.048164 1.312224
v -0.115901 0.140254 1.302530
v 0.000023 0.149087 1.258357
v -0.000001 0.127641 1.018885
v -0.082497 0.116244 1.249675
v 0.099778 0.136077 1.243321
v 0.081167 0.108253 1.155486
v -0.120644 0.062836 1.231716
v -0.137619 0.022426 1.016047
v -0.118874 0.139371 0.828619
v 0.129744 0.072931 1.229771
v 0.119139 0.040609 1.162046
v -0.073483 -0.036266 1.310214
v -0.107975 0.012089 1.302932
v -0.107037 0.014151 1.165555
vt 0.028301 0.984650
vt 0.008612 0.674770
vt 0.249807 0.984650
vt 0.402438 0.581302
vt 0.393171 0.832688
vt 0.967568 0.593463
vt 0.964421 0.758023
vt 0.868447 0.681120
vt 0.946225 0.573304
vt 0.466790 0.933457
vt 0.489812 0.934440
vt 0.489812 0.924534
vt 0.478301 0.924564
vt 0.447353 0.926787
vt 0.447353 0.934984
vt 0.489004 0.935048
vt 0.466790 0.926303
vt 0.466790 0.913705
vt 0.446929 0.926394
vt 0.965511 0.984650
vt 0.594520 0.984650
vt 0.985944 0.713870
vt 0.361482 0.984650
vt 0.249807 0.984650
vt 0.393171 0.832688
vt 0.953809 0.547441
vt 0.577391 0.835728
vt 0.449319 0.924882
vt 0.466790 0.933457
vt 0.466790 0.924609
vt 0.669407 0.953672
vt 0.773153 0.875050
vt 0.648257 0.506276
vt 0.803042 0.506911
vt 0.960768 0.920283
vt 0.962417 0.756781
vt 0.962105 0.756587
vt 0.962832 0.920522
vt 0.673699 0.991713
vt 0.644309 0.731239
vt 0.620819 0.290659
vt 0.607741 0.242497
vt 0.932853 0.269327
vt 0.892875 0.290357
vt 0.941990 0.883912
vt 0.950844 0.881044
vt 0.988608 0.909652
vt 0.843056 0.066183
vt 0.893831 0.014599
vt 0.948237 0.061885
vt 0.009953 0.282946
vt 0.038411 0.023017
vt 0.068400 0.282356
vt 0.822509 0.888404
vt 0.904235 0.938856
vt 0.875072 0.983047
vt 0.805159 0.938690
vt 0.891317 0.800037
vt 0.807716 0.800672
vt 0.843052 0.066183
vt 0.948237 0.061885
vt 0.893827 0.014598
vt 0.862154 0.248661
vt 0.892871 0.290357
vt 0.934275 0.269743
vt 0.488496 0.731239
vt 0.648069 0.506276
vt 0.644309 0.731239
vt 0.665664 0.991713
vt 0.641613 0.731239
vt 0.299224 0.991713
vt 0.297212 0.503856
vt 0.025956 0.731239
vt 0.673699 0.991713
vt 0.514255 0.991713
vt 0.892366 0.796083
vt 0.965662 0.790176
vt 0.964164 0.700901
usemtl 0006_bc001_t02_tm2
f 5/1 4/2 3/3
f 4/2 1/4 2/5 3/3
usemtl 0002_bc001_t04_tm2
f 13/6 11/7 9/8 10/9
f 12/6 8/9 6/8 7/7
usemtl 0007_bc001_t02_tm2
f 17/10 16/11 14/12 15/13
usemtl 0007_bc001_t02_tm2
f 19/14 20/15 18/16
usemtl 0007_bc001_t02_tm2
f 22/17 23/18 21/19
usemtl 0006_bc001_t02_tm2
f 28/20 26/21 25/22
f 29/23 30/24 31/25
f 27/26 25/22 26/21 24/27
usemtl 0007_bc001_t02_tm2
f 33/28 34/29 32/30
usemtl 0002_bc001_t04_tm2
f 35/31 36/32 37/33
f 38/34 37/33 36/32
f 41/35 40/36 38/34 36/32
f 39/32 38/34 42/37 43/38
f 39/32 45/39 44/40
f 44/40 37/33 38/34 39/32
usemtl 0004_bc001_t01_tm2
f 50/41 48/42 49/43 47/44
f 52/45 51/46 53/47
f 46/48 47/49 54/50
usemtl 0001_bc001_t01_tm2
f 56/51 55/52 57/53
usemtl 0004_bc001_t01_tm2
f 64/54 63/55 65/56 66/57
f 62/58 63/55 64/54
f 69/55 64/54 67/57 68/56
f 64/54 69/55 70/58
f 62/58 64/54 71/59
f 70/58 71/59 64/54
f 58/60 72/61 59/62
f 61/63 59/64 60/65
usemtl 0002_bc001_t04_tm2
f 77/66 73/67 76/68
f 78/69 75/70 79/71
f 73/67 77/66 74/72 75/70
f 75/70 74/72 80/73
f 81/74 82/75 77/66 76/68
usemtl 0004_bc001_t01_tm2
f 83/76 84/77 85/78
